<?xml version="1.0" encoding="UTF-8"?>
<svg width="24px" height="24px" viewBox="0 0 24 24" version="1.1" xmlns="http://www.w3.org/2000/svg" xmlns:xlink="http://www.w3.org/1999/xlink">
    <!-- Generator: sketchtool 52.6 (67491) - http://www.bohemiancoding.com/sketch -->
    <title>42CD244B-0E75-4EEB-968A-2FF3CF6AFD60</title>
    <desc>Created with sketchtool.</desc>
    <defs>
        <polygon id="path-1" points="0 0 16 0 16 16 0 16"/>
    </defs>
    <g id="Symbols" stroke="none" stroke-width="1" fill="none" fill-rule="evenodd">
        <g id="Icon-/-Edit">
            <g id="Group-3" transform="translate(4.000000, 4.000000)">
                <mask id="mask-2" fill="white">
                    <use xlink:href="#path-1"/>
                </mask>
                <g id="Clip-2"/>
                <path d="M9.82974587,2.83555556 L0,12.6666667 L0,16 L3.33287043,16 L13.1626163,6.16888889 C13.1626163,6.16888889 9.82974587,2.83555556 9.82974587,2.83555556 M13.0293015,0 C12.8071101,0 12.5760311,0.0888888889 12.4071657,0.257777778 L10.7807249,1.88444444 L14.1135953,5.21777778 L15.7400361,3.59111111 C16.0866546,3.24444444 16.0866546,2.68444444 15.7400361,2.33777778 L13.660325,0.257777778 C13.4825719,0.08 13.2603805,0 13.0293015,0 M9.82974587,5.35111111 L10.6474101,6.16888889 L2.59519511,14.2222222 L1.7775309,14.2222222 L1.7775309,13.4044444 L9.82974587,5.35111111" id="Fill-1" fill="#000000" mask="url(#mask-2)"/>
            </g>
        </g>
    </g>
</svg>